<?xml version="1.0" encoding="iso-8859-1"?>
<!-- Uploaded to: SVG Repo, www.svgrepo.com, Generator: SVG Repo Mixer Tools -->
<svg height="800px" width="800px" version="1.1" id="Layer_1" xmlns="http://www.w3.org/2000/svg" xmlns:xlink="http://www.w3.org/1999/xlink" 
	 viewBox="0 0 512 512" xml:space="preserve">
<polyline style="fill:#65B4BB;" points="294.518,166.211 294.518,80.716 95.624,80.716 95.624,44.249 9.256,130.605 95.624,216.96 
	95.624,180.494 195.542,180.494 "/>
<circle style="fill:#FED159;" cx="256.944" cy="256.09" r="97.397"/>
<polygon style="fill:#F64B4A;" points="504.63,381.585 418.272,295.227 418.272,331.7 219.375,331.7 219.375,431.472 
	418.272,431.472 418.272,467.944 "/>
<path d="M229.611,279.691c-4.592,0-8.313,3.722-8.313,8.313s3.721,8.313,8.313,8.313h18.078v9.976c0,4.591,3.721,8.313,8.313,8.313
	c4.592,0,8.313-3.722,8.313-8.313v-9.976h18.077c4.592,0,8.313-3.722,8.313-8.313v-32.006c0-4.591-3.721-8.313-8.313-8.313h-44.468
	v-15.379h44.468c4.592,0,8.313-3.722,8.313-8.313s-3.721-8.313-8.313-8.313h-18.077v-9.976c0-4.591-3.721-8.313-8.313-8.313
	c-4.592,0-8.313,3.722-8.313,8.313v9.976h-18.078c-4.592,0-8.313,3.722-8.313,8.313v32.006c0,4.591,3.721,8.313,8.313,8.313h44.468
	v15.379H229.611z"/>
<path d="M509.566,375.61l-86.357-86.358c-2.379-2.379-5.954-3.09-9.06-1.802c-3.107,1.287-5.132,4.318-5.132,7.68v28.16h-71.478
	c15.54-18.768,24.174-42.404,24.174-67.296c0-42.756-25.486-81.047-64.927-97.548c-12.936-5.414-26.656-8.159-40.781-8.159
	c-23.218,0-45.909,7.733-64.256,21.798H94.68c-4.592,0-8.313,3.722-8.313,8.313v16.398L20.07,130.508l66.297-66.287v16.398
	c0,4.591,3.721,8.313,8.313,8.313h35.923c4.592,0,8.313-3.722,8.313-8.313c0-4.591-3.721-8.313-8.313-8.313h-27.61V44.153
	c0-3.362-2.025-6.393-5.132-7.68c-3.107-1.288-6.682-0.575-9.059,1.801L2.435,124.63C0.876,126.189,0,128.303,0,130.509
	c0,2.206,0.876,4.32,2.435,5.879l86.367,86.356c1.591,1.591,3.717,2.435,5.88,2.434c1.071,0,2.15-0.207,3.179-0.633
	c3.107-1.287,5.132-4.318,5.132-7.68v-28.153h71.459c-15.529,18.765-24.156,42.396-24.156,67.282
	c0,31.785,14.104,61.585,38.692,81.758c3.547,2.911,8.786,2.395,11.701-1.155c2.912-3.549,2.394-8.788-1.155-11.699
	c-20.724-17.002-32.611-42.118-32.611-68.904c0-26.945,11.998-52.146,32.924-69.148c15.793-12.854,35.736-19.933,56.157-19.933
	c11.909,0,23.47,2.311,34.363,6.87c33.239,13.907,54.718,46.177,54.718,82.211c0,25.985-11.166,50.346-30.731,67.296h-95.923
	c-4.592,0-8.313,3.722-8.313,8.313v99.771c0,4.591,3.721,8.313,8.313,8.313h190.584v28.16c0,3.363,2.025,6.393,5.132,7.68
	c1.029,0.426,2.108,0.633,3.179,0.633c2.164,0,4.29-0.845,5.881-2.435l34.966-34.966c3.247-3.247,3.247-8.51,0-11.756
	c-3.247-3.245-8.509-3.248-11.757,0l-20.774,20.775v-16.402c0-4.591-3.721-8.313-8.313-8.313H226.745v-83.145h190.584
	c4.592,0,8.313-3.722,8.313-8.313v-16.402l66.288,66.288L466.48,406.94c-3.247,3.247-3.247,8.51,0,11.756
	c3.248,3.247,8.51,3.247,11.757,0l31.327-31.327C512.811,384.121,512.811,378.857,509.566,375.61z"/>
<path d="M160.263,88.932h124.999v43.192c0,4.591,3.721,8.313,8.313,8.313c4.592,0,8.313-3.722,8.313-8.313V80.619
	c0-4.591-3.721-8.313-8.313-8.313H160.263c-4.592,0-8.313,3.722-8.313,8.313C151.949,85.21,155.67,88.932,160.263,88.932z"/>
</svg>